<mxfile host="Electron" agent="Mozilla/5.0 (X11; Linux x86_64) AppleWebKit/537.36 (KHTML, like Gecko) draw.io/26.2.15 Chrome/134.0.6998.205 Electron/35.2.1 Safari/537.36" version="26.2.15">
  <diagram name="PÃ¡gina-1" id="tbhhrolYnf2YLyF_AGn1">
    <mxGraphModel dx="951" dy="583" grid="1" gridSize="10" guides="1" tooltips="1" connect="1" arrows="1" fold="1" page="1" pageScale="1" pageWidth="827" pageHeight="1169" math="0" shadow="0">
      <root>
        <mxCell id="0" />
        <mxCell id="1" parent="0" />
        <mxCell id="gUQwB867zqCJYkILIy9S-1" value="COB002 -&amp;nbsp;CALCULATE BMI" style="text;html=1;align=left;verticalAlign=middle;whiteSpace=wrap;rounded=0;fontStyle=1" parent="1" vertex="1">
          <mxGeometry x="40" y="40" width="760" height="30" as="geometry" />
        </mxCell>
        <mxCell id="hJ2BFbXUZGXYHwbM8L2G-37" style="edgeStyle=orthogonalEdgeStyle;rounded=0;orthogonalLoop=1;jettySize=auto;html=1;exitX=0.5;exitY=1;exitDx=0;exitDy=0;exitPerimeter=0;entryX=0.5;entryY=0;entryDx=0;entryDy=0;" edge="1" parent="1" source="gUQwB867zqCJYkILIy9S-3" target="hJ2BFbXUZGXYHwbM8L2G-29">
          <mxGeometry relative="1" as="geometry" />
        </mxCell>
        <mxCell id="gUQwB867zqCJYkILIy9S-3" value="Start" style="strokeWidth=2;html=1;shape=mxgraph.flowchart.terminator;whiteSpace=wrap;" parent="1" vertex="1">
          <mxGeometry x="140" y="80" width="100" height="60" as="geometry" />
        </mxCell>
        <mxCell id="0eGiHp5goSOmYRr4eiXb-60" value="Stop" style="strokeWidth=2;html=1;shape=mxgraph.flowchart.terminator;whiteSpace=wrap;" parent="1" vertex="1">
          <mxGeometry x="140.00000000000009" y="720" width="100" height="60" as="geometry" />
        </mxCell>
        <mxCell id="hJ2BFbXUZGXYHwbM8L2G-38" style="edgeStyle=orthogonalEdgeStyle;rounded=0;orthogonalLoop=1;jettySize=auto;html=1;exitX=0.5;exitY=1;exitDx=0;exitDy=0;entryX=0.5;entryY=0;entryDx=0;entryDy=0;" edge="1" parent="1" source="hJ2BFbXUZGXYHwbM8L2G-29" target="hJ2BFbXUZGXYHwbM8L2G-30">
          <mxGeometry relative="1" as="geometry" />
        </mxCell>
        <mxCell id="hJ2BFbXUZGXYHwbM8L2G-29" value="&lt;div&gt;&lt;br&gt;&lt;/div&gt;&lt;div&gt;&lt;div&gt;WS-PESO&lt;/div&gt;&lt;div&gt;WS-ALTURA&lt;/div&gt;&lt;div&gt;WS-IMC&lt;/div&gt;&lt;div&gt;&lt;br&gt;&lt;/div&gt;&lt;div&gt;WS-IMC-EDIT&lt;/div&gt;&lt;/div&gt;" style="shape=internalStorage;whiteSpace=wrap;html=1;dx=15;dy=15;rounded=1;arcSize=8;strokeWidth=2;" vertex="1" parent="1">
          <mxGeometry x="130" y="170" width="120" height="90" as="geometry" />
        </mxCell>
        <mxCell id="hJ2BFbXUZGXYHwbM8L2G-39" style="edgeStyle=orthogonalEdgeStyle;rounded=0;orthogonalLoop=1;jettySize=auto;html=1;exitX=0.5;exitY=1;exitDx=0;exitDy=0;entryX=0.5;entryY=0;entryDx=0;entryDy=0;" edge="1" parent="1" source="hJ2BFbXUZGXYHwbM8L2G-30" target="hJ2BFbXUZGXYHwbM8L2G-31">
          <mxGeometry relative="1" as="geometry" />
        </mxCell>
        <mxCell id="hJ2BFbXUZGXYHwbM8L2G-30" value="&lt;div&gt;&lt;br&gt;&lt;/div&gt;WS-PESO" style="html=1;strokeWidth=2;shape=manualInput;whiteSpace=wrap;rounded=1;size=26;arcSize=11;" vertex="1" parent="1">
          <mxGeometry x="140" y="290" width="100" height="60" as="geometry" />
        </mxCell>
        <mxCell id="hJ2BFbXUZGXYHwbM8L2G-40" style="edgeStyle=orthogonalEdgeStyle;rounded=0;orthogonalLoop=1;jettySize=auto;html=1;exitX=0.5;exitY=1;exitDx=0;exitDy=0;entryX=0.5;entryY=0;entryDx=0;entryDy=0;" edge="1" parent="1" source="hJ2BFbXUZGXYHwbM8L2G-31" target="hJ2BFbXUZGXYHwbM8L2G-33">
          <mxGeometry relative="1" as="geometry" />
        </mxCell>
        <mxCell id="hJ2BFbXUZGXYHwbM8L2G-31" value="&lt;div&gt;&lt;br&gt;&lt;/div&gt;&lt;div&gt;WS-ALTURA&lt;/div&gt;" style="html=1;strokeWidth=2;shape=manualInput;whiteSpace=wrap;rounded=1;size=26;arcSize=11;" vertex="1" parent="1">
          <mxGeometry x="140" y="380" width="100" height="60" as="geometry" />
        </mxCell>
        <mxCell id="hJ2BFbXUZGXYHwbM8L2G-41" style="edgeStyle=orthogonalEdgeStyle;rounded=0;orthogonalLoop=1;jettySize=auto;html=1;exitX=0.5;exitY=1;exitDx=0;exitDy=0;entryX=0.5;entryY=0;entryDx=0;entryDy=0;" edge="1" parent="1" source="hJ2BFbXUZGXYHwbM8L2G-33" target="hJ2BFbXUZGXYHwbM8L2G-36">
          <mxGeometry relative="1" as="geometry" />
        </mxCell>
        <mxCell id="hJ2BFbXUZGXYHwbM8L2G-33" value="WS-IMC = (WS-PESO / (WS-ALTURA * WS-ALTURA))" style="rounded=1;whiteSpace=wrap;html=1;absoluteArcSize=1;arcSize=14;strokeWidth=2;" vertex="1" parent="1">
          <mxGeometry x="40" y="470" width="300" height="50" as="geometry" />
        </mxCell>
        <mxCell id="hJ2BFbXUZGXYHwbM8L2G-35" value="WS-IMC-EDIT" style="strokeWidth=2;html=1;shape=mxgraph.flowchart.display;whiteSpace=wrap;" vertex="1" parent="1">
          <mxGeometry x="140" y="630" width="100" height="60" as="geometry" />
        </mxCell>
        <mxCell id="hJ2BFbXUZGXYHwbM8L2G-36" value="WS-IMC-EDIT =&amp;nbsp;WS-IMC" style="rounded=1;whiteSpace=wrap;html=1;absoluteArcSize=1;arcSize=14;strokeWidth=2;" vertex="1" parent="1">
          <mxGeometry x="40" y="550" width="300" height="50" as="geometry" />
        </mxCell>
        <mxCell id="hJ2BFbXUZGXYHwbM8L2G-44" style="edgeStyle=orthogonalEdgeStyle;rounded=0;orthogonalLoop=1;jettySize=auto;html=1;exitX=0.5;exitY=1;exitDx=0;exitDy=0;entryX=0.5;entryY=0;entryDx=0;entryDy=0;entryPerimeter=0;" edge="1" parent="1" source="hJ2BFbXUZGXYHwbM8L2G-36" target="hJ2BFbXUZGXYHwbM8L2G-35">
          <mxGeometry relative="1" as="geometry" />
        </mxCell>
        <mxCell id="hJ2BFbXUZGXYHwbM8L2G-45" style="edgeStyle=orthogonalEdgeStyle;rounded=0;orthogonalLoop=1;jettySize=auto;html=1;exitX=0.5;exitY=1;exitDx=0;exitDy=0;exitPerimeter=0;entryX=0.5;entryY=0;entryDx=0;entryDy=0;entryPerimeter=0;" edge="1" parent="1" source="hJ2BFbXUZGXYHwbM8L2G-35" target="0eGiHp5goSOmYRr4eiXb-60">
          <mxGeometry relative="1" as="geometry" />
        </mxCell>
      </root>
    </mxGraphModel>
  </diagram>
</mxfile>
